<?xml version="1.0" encoding="UTF-8"?>
<svg width="146px" height="34px" viewBox="0 0 146 34" version="1.1" xmlns="http://www.w3.org/2000/svg" xmlns:xlink="http://www.w3.org/1999/xlink">
    <!-- Generator: Sketch 51.2 (57519) - http://www.bohemiancoding.com/sketch -->
    <title>T-Agency</title>
    <desc>Created with Sketch.</desc>
    <defs></defs>
    <g id="Page-1" stroke="none" stroke-width="1" fill="none" fill-rule="evenodd">
        <g id="1-Landing-Page-Cuba" transform="translate(-135.000000, -4819.000000)" fill="#37C491">
            <g id="Footer" transform="translate(0.000000, 4756.000000)">
                <g id="logo-color_horizontal" transform="translate(135.000000, 63.000000)">
                    <path d="M11.356,25 L7.99,25 L7.99,3.886 L0.272,3.886 L0.272,0.928 L19.074,0.928 L19.074,3.886 L11.356,3.886 L11.356,25 Z M25.67,18.064 L17.782,18.064 L17.782,15.344 L25.67,15.344 L25.67,18.064 Z M31.076,25 L27.336,25 L37.774,0.928 L40.834,0.928 L51.17,25 L47.362,25 L44.914,19.084 L33.49,19.084 L31.076,25 Z M34.68,16.126 L43.69,16.126 L39.202,4.838 L34.68,16.126 Z M55.352,27.754 C56.0546702,28.5473373 56.9329947,29.1819976 57.987,29.658 C59.0410053,30.1340024 60.1233278,30.372 61.234,30.372 C62.2993387,30.372 63.194663,30.2190015 63.92,29.913 C64.645337,29.6069985 65.2289978,29.1876693 65.671,28.655 C66.1130022,28.1223307 66.4303324,27.493337 66.623,26.768 C66.8156676,26.042663 66.912,25.2606709 66.912,24.422 L66.912,22.348 L66.844,22.348 C66.2546637,23.2546712 65.4500051,23.9459976 64.43,24.422 C63.4099949,24.8980024 62.3220058,25.136 61.166,25.136 C59.9419939,25.136 58.8256717,24.9206688 57.817,24.49 C56.8083283,24.0593312 55.9526702,23.4700037 55.25,22.722 C54.5473298,21.9739963 54.0033353,21.0956717 53.618,20.087 C53.2326647,19.0783283 53.04,17.9960058 53.04,16.84 C53.04,15.6839942 53.2326647,14.5960051 53.618,13.576 C54.0033353,12.5559949 54.5473298,11.6663371 55.25,10.907 C55.9526702,10.1476629 56.8026617,9.54700221 57.8,9.105 C58.7973383,8.66299779 59.9079939,8.442 61.132,8.442 C62.2880058,8.442 63.3929947,8.69133084 64.447,9.19 C65.5010053,9.68866916 66.3339969,10.4479949 66.946,11.468 L67.014,11.468 L67.014,8.884 L70.108,8.884 L70.108,24.184 C70.108,25.3626726 69.9606681,26.4903279 69.666,27.567 C69.3713319,28.643672 68.8726702,29.5956625 68.17,30.423 C67.4673298,31.2503375 66.549339,31.9133308 65.416,32.412 C64.282661,32.9106692 62.8773417,33.16 61.2,33.16 C59.7946596,33.16 58.3836738,32.9050025 56.967,32.395 C55.5503263,31.8849974 54.3320051,31.165338 53.312,30.236 L55.352,27.754 Z M56.338,16.772 C56.338,17.5200037 56.4569988,18.2339966 56.695,18.914 C56.9330012,19.5940034 57.284331,20.1946641 57.749,20.716 C58.213669,21.2373359 58.7746634,21.6566651 59.432,21.974 C60.0893366,22.2913349 60.8373291,22.45 61.676,22.45 C62.4920041,22.45 63.2399966,22.3026681 63.92,22.008 C64.6000034,21.7133319 65.1779976,21.3110025 65.654,20.801 C66.1300024,20.2909974 66.498332,19.6903368 66.759,18.999 C67.019668,18.3076632 67.15,17.5653373 67.15,16.772 C67.15,16.0013295 67.019668,15.2760034 66.759,14.596 C66.498332,13.9159966 66.1243358,13.3153359 65.637,12.794 C65.1496642,12.2726641 64.57167,11.8590015 63.903,11.553 C63.23433,11.2469985 62.4920041,11.094 61.676,11.094 C60.8373291,11.094 60.0893366,11.2469985 59.432,11.553 C58.7746634,11.8590015 58.213669,12.2669974 57.749,12.777 C57.284331,13.2870025 56.9330012,13.8876632 56.695,14.579 C56.4569988,15.2703368 56.338,16.0013295 56.338,16.772 Z M87.38,15.514 C87.3573332,14.8793302 87.2496676,14.2843361 87.057,13.729 C86.8643324,13.1736639 86.5810019,12.692002 86.207,12.284 C85.8329981,11.875998 85.3683361,11.5530012 84.813,11.315 C84.2576639,11.0769988 83.6060037,10.958 82.858,10.958 C82.1779966,10.958 81.5376697,11.0769988 80.937,11.315 C80.3363303,11.5530012 79.8150022,11.875998 79.373,12.284 C78.9309978,12.692002 78.5683347,13.1736639 78.285,13.729 C78.0016652,14.2843361 77.8373336,14.8793302 77.792,15.514 L87.38,15.514 Z M90.61,16.806 L90.61,17.35 C90.61,17.5313342 90.5986668,17.7126658 90.576,17.894 L77.792,17.894 C77.8146668,18.5740034 77.9676653,19.2143303 78.251,19.815 C78.5343347,20.4156697 78.9139976,20.9369978 79.39,21.379 C79.8660024,21.8210022 80.4156636,22.1666654 81.039,22.416 C81.6623364,22.6653346 82.3253298,22.79 83.028,22.79 C84.1160054,22.79 85.0566627,22.5520024 85.85,22.076 C86.6433373,21.5999976 87.2666644,21.0220034 87.72,20.342 L89.964,22.144 C89.1026624,23.277339 88.0883392,24.1103307 86.921,24.643 C85.7536608,25.1756693 84.4560071,25.442 83.028,25.442 C81.8039939,25.442 80.6706719,25.238002 79.628,24.83 C78.5853281,24.421998 77.6900037,23.8496703 76.942,23.113 C76.1939963,22.3763296 75.6046688,21.4866719 75.174,20.444 C74.7433312,19.4013281 74.528,18.2453397 74.528,16.976 C74.528,15.7293271 74.7376646,14.5790053 75.157,13.525 C75.5763354,12.4709947 76.1599963,11.5700037 76.908,10.822 C77.6560037,10.0739963 78.5399949,9.49033543 79.56,9.071 C80.5800051,8.65166457 81.6793274,8.442 82.858,8.442 C84.0366726,8.442 85.1076618,8.63466474 86.071,9.02 C87.0343381,9.40533526 87.85033,9.96066304 88.519,10.686 C89.18767,11.411337 89.7033315,12.2896615 90.066,13.321 C90.4286685,14.3523385 90.61,15.5139935 90.61,16.806 Z M97.954,8.884 C97.9993336,9.29200204 98.0333332,9.75099745 98.056,10.261 C98.0786668,10.7710025 98.09,11.1959983 98.09,11.536 L98.192,11.536 C98.396001,11.1053312 98.6736649,10.7030019 99.025,10.329 C99.3763351,9.95499813 99.7786644,9.62633475 100.232,9.343 C100.685336,9.05966525 101.183997,8.83866746 101.728,8.68 C102.272003,8.52133254 102.838664,8.442 103.428,8.442 C104.470672,8.442 105.365996,8.61766491 106.114,8.969 C106.862004,9.32033509 107.485331,9.79066372 107.984,10.38 C108.482669,10.9693363 108.850999,11.6606627 109.089,12.454 C109.327001,13.2473373 109.446,14.0973288 109.446,15.004 L109.446,25 L106.25,25 L106.25,16.058 C106.25,15.4006634 106.199001,14.7773363 106.097,14.188 C105.994999,13.5986637 105.808001,13.0773356 105.536,12.624 C105.263999,12.1706644 104.890002,11.8080014 104.414,11.536 C103.937998,11.2639986 103.326004,11.128 102.578,11.128 C101.30866,11.128 100.271671,11.6096618 99.467,12.573 C98.6623293,13.5363381 98.26,14.8226586 98.26,16.432 L98.26,25 L95.064,25 L95.064,12.352 C95.064,11.9213312 95.0526668,11.3660034 95.03,10.686 C95.0073332,10.0059966 94.9733336,9.40533594 94.928,8.884 L97.954,8.884 Z M126.14,12.964 C125.799998,12.4426641 125.290003,12.0063351 124.61,11.655 C123.929997,11.3036649 123.204671,11.128 122.434,11.128 C121.595329,11.128 120.853003,11.2866651 120.207,11.604 C119.560997,11.9213349 119.011336,12.3463307 118.558,12.879 C118.104664,13.4116693 117.759001,14.0293298 117.521,14.732 C117.282999,15.4346702 117.164,16.1713295 117.164,16.942 C117.164,17.7126705 117.282999,18.4493298 117.521,19.152 C117.759001,19.8546702 118.104664,20.4723307 118.558,21.005 C119.011336,21.5376693 119.566663,21.9626651 120.224,22.28 C120.881337,22.5973349 121.629329,22.756 122.468,22.756 C123.284004,22.756 124.02633,22.5973349 124.695,22.28 C125.36367,21.9626651 125.913331,21.5320027 126.344,20.988 L128.486,22.926 C127.805997,23.7193373 126.956005,24.3369978 125.936,24.779 C124.915995,25.2210022 123.760006,25.442 122.468,25.442 C121.221327,25.442 120.071005,25.238002 119.017,24.83 C117.962995,24.421998 117.050671,23.8496703 116.28,23.113 C115.509329,22.3763296 114.903002,21.4866719 114.461,20.444 C114.018998,19.4013281 113.798,18.2340065 113.798,16.942 C113.798,15.6726603 114.013331,14.5166719 114.444,13.474 C114.874669,12.4313281 115.475329,11.5360037 116.246,10.788 C117.016671,10.0399963 117.928995,9.46200204 118.983,9.054 C120.037005,8.64599796 121.175994,8.442 122.4,8.442 C123.533339,8.442 124.660994,8.6686644 125.783,9.122 C126.905006,9.5753356 127.794663,10.2326624 128.452,11.094 L126.14,12.964 Z M137.768,21.532 L137.836,21.532 L142.29,8.884 L145.69,8.884 L137.87,28.808 C137.597999,29.4880034 137.303335,30.0943307 136.986,30.627 C136.668665,31.1596693 136.294669,31.6129981 135.864,31.987 C135.433331,32.3610019 134.929003,32.649999 134.351,32.854 C133.772997,33.058001 133.087337,33.16 132.294,33.16 C131.953998,33.16 131.608335,33.1430002 131.257,33.109 C130.905665,33.0749998 130.548668,33.0126671 130.186,32.922 L130.492,30.1 C131.036003,30.2813342 131.568664,30.372 132.09,30.372 C132.928671,30.372 133.551998,30.139669 133.96,29.675 C134.368002,29.210331 134.741998,28.5473376 135.082,27.686 L136.102,25 L129.2,8.884 L132.77,8.884 L137.768,21.532 Z" id="T-Agency"></path>
                </g>
            </g>
        </g>
    </g>
</svg>