<?xml version="1.0" encoding="UTF-8"?>
<svg width="80px" height="76px" viewBox="0 0 80 76" version="1.1" xmlns="http://www.w3.org/2000/svg" xmlns:xlink="http://www.w3.org/1999/xlink">
    <!-- Generator: Sketch 51.2 (57519) - http://www.bohemiancoding.com/sketch -->
    <title>restaurant</title>
    <desc>Created with Sketch.</desc>
    <defs></defs>
    <g id="Page-1" stroke="none" stroke-width="1" fill="none" fill-rule="evenodd">
        <g id="1-Landing-Page-Cuba" transform="translate(-559.000000, -1075.000000)" fill="#ECB84C">
            <g id="Content" transform="translate(135.000000, 847.000000)">
                <g id="Section-1-Summary">
                    <g id="Icons+Stats" transform="translate(182.000000, 226.000000)">
                        <g id="Operators" transform="translate(242.000000, 2.000000)">
                            <g id="restaurant">
                                <path d="M74.4828125,0.0376872428 L68.965625,0.0376872428 L66.0690625,0.0376872428 L57.9310938,0.0376872428 L55.1725,0.0376872428 L46.8965625,0.0376872428 L44.1379688,0.0376872428 L35.8620313,0.0376872428 L33.1034375,0.0376872428 L24.8275,0.0376872428 L22.0689063,0.0376872428 L13.793125,0.0376872428 L11.0345312,0.0376872428 L5.379375,0.0376872428 C2.34484375,0.0376872428 0,2.38446091 0,5.42148971 L0,16.6030288 C0,18.5357119 0.82765625,20.4682387 2.206875,21.7106667 C2.8059375,22.1904362 3.45734375,22.5917037 4.13796875,22.8924198 L4.13796875,30.4075062 L4.13796875,74.5818025 C4.13796875,75.4101399 4.6896875,75.9623128 5.51734375,75.9623128 L12.4139063,75.9623128 L31.7242187,75.9623128 L74.4828125,75.9623128 C75.3104687,75.9623128 75.8621875,75.4101399 75.8621875,74.5818025 L75.8621875,30.4078189 L75.8621875,30.4076626 L75.8621875,22.8960165 C78.28125,21.732716 80,19.1595062 80,16.3270206 L80,5.42148971 C80,2.38446091 77.6551563,0.0376872428 74.4828125,0.0376872428 L74.4828125,0.0376872428 Z M57.9310937,2.79870782 L66.0690625,2.79870782 L66.0690625,16.6031852 C66.0690625,16.8804444 66.0910937,17.1573909 66.1292187,17.4326173 C65.7621875,19.3598272 64.12875,20.7445597 62.0690625,20.7445597 C59.7242187,20.7445597 57.9310937,18.9499588 57.9310937,16.6031852 L57.9310937,2.79870782 L57.9310937,2.79870782 Z M46.8965625,2.79870782 L55.1725,2.79870782 L55.1725,16.6031852 C55.1725,18.9499588 53.379375,20.7445597 51.0345313,20.7445597 C48.6896875,20.7445597 46.8965625,18.9499588 46.8965625,16.6031852 L46.8965625,2.79870782 L46.8965625,2.79870782 Z M35.8620312,2.79870782 L44.1379687,2.79870782 L44.1379687,16.6031852 C44.1379687,18.9499588 42.3448437,20.7445597 40,20.7445597 C37.6551562,20.7445597 35.8620312,18.9499588 35.8620312,16.6031852 L35.8620312,2.79870782 L35.8620312,2.79870782 Z M24.8276562,2.79870782 L33.1035937,2.79870782 L33.1035937,16.6031852 C33.1035937,18.9499588 31.3104687,20.7445597 28.965625,20.7445597 C26.6207812,20.7445597 24.8276562,18.9499588 24.8276562,16.6031852 L24.8276562,2.79870782 L24.8276562,2.79870782 Z M13.793125,2.79870782 L22.0690625,2.79870782 L22.0690625,16.6031852 C22.0690625,18.9499588 20.2759375,20.7445597 17.9310938,20.7445597 C15.58625,20.7445597 13.793125,18.9499588 13.793125,16.6031852 L13.793125,16.3270206 L13.793125,2.79870782 L13.793125,2.79870782 Z M2.75859375,16.6030288 L2.75859375,5.42148971 C2.75859375,3.9030535 3.86203125,2.79870782 5.37921875,2.79870782 L11.034375,2.79870782 L11.034375,16.3270206 C11.034375,18.3915309 9.588125,20.2144362 7.7096875,20.6691852 C7.5053125,20.7073416 7.295,20.7314239 7.07953125,20.7400247 C6.03703125,20.7032757 4.90828125,20.4110041 4.1378125,19.6400576 C3.3103125,18.9498025 2.75859375,17.7073745 2.75859375,16.6030288 L2.75859375,16.6030288 Z M7.58625,23.5052675 C8.1321875,23.4397449 8.66078125,23.3044774 9.16390625,23.109786 C10.4589063,22.6520658 11.5971875,21.823572 12.396875,20.7656708 C13.645,22.4387654 15.6426563,23.5052675 17.9310938,23.5052675 C20.209375,23.5052675 22.1990625,22.4478354 23.4482813,20.7874074 C24.6975,22.4478354 26.6871875,23.5052675 28.9654688,23.5052675 C31.24375,23.5052675 33.2334375,22.4478354 34.4826563,20.7874074 C35.731875,22.4478354 37.7215625,23.5052675 39.9998438,23.5052675 C42.278125,23.5052675 44.2678125,22.4478354 45.5170313,20.7874074 C46.76625,22.4478354 48.7559375,23.5052675 51.0342188,23.5052675 C53.3125,23.5052675 55.3021875,22.4478354 56.5514063,20.7874074 C57.800625,22.4478354 59.7903125,23.5052675 62.0685938,23.5052675 C64.3403125,23.5052675 66.3248438,22.4537778 67.5746875,20.8016379 C67.8310938,21.1323786 68.1115625,21.4388807 68.4132813,21.7106667 C68.6342188,21.8876872 68.863125,22.0526667 69.0970313,22.2071687 C70.073125,22.9002387 71.2396875,23.3548313 72.4728125,23.4721152 C72.4829688,23.4732099 72.493125,23.4739918 72.5032813,23.47493 C72.5876563,23.4825926 72.671875,23.4899424 72.756875,23.4944774 C72.8721875,23.5010453 72.9875,23.5052675 73.1028125,23.5052675 L73.1028125,29.0269959 L6.8965625,29.0269959 L6.8965625,23.5052675 L7.58625,23.5052675 L7.58625,23.5052675 Z M13.793125,73.2012922 L13.793125,37.3097449 L30.3448438,37.3097449 L30.3448438,56.6359506 L27.58625,56.6359506 C26.7585938,56.6359506 26.206875,57.1881235 26.206875,58.0164609 C26.206875,58.8447984 26.7585938,59.3969712 27.58625,59.3969712 L30.3448438,59.3969712 L30.3448438,73.2014486 L13.793125,73.2014486 L13.793125,73.2012922 Z M73.1034375,73.2012922 L33.1034375,73.2012922 L33.1034375,35.9293909 C33.1034375,35.1010535 32.5517188,34.5488807 31.7240625,34.5488807 L12.41375,34.5488807 C11.5860938,34.5488807 11.034375,35.1010535 11.034375,35.9293909 L11.034375,73.2014486 L6.8965625,73.2014486 L6.8965625,31.7880165 L73.1034375,31.7880165 L73.1034375,73.2012922 L73.1034375,73.2012922 Z M77.2414063,16.3270206 C77.2414063,18.3666667 75.9909375,19.9884691 74.3053125,20.5595638 C74.2265625,20.5667572 74.1478125,20.5802058 74.0689063,20.6064774 C73.8657813,20.7081235 73.588125,20.7347078 73.345625,20.7417449 C72.286875,20.7140658 71.1298438,20.4257037 70.3448438,19.6400576 C69.5171875,18.9498025 68.9654688,17.7073745 68.9654688,16.6030288 L68.9654688,2.79870782 L74.620625,2.79870782 C76.1378125,2.79870782 77.24125,4.0411358 77.24125,5.42148971 L77.24125,16.3270206 L77.2414063,16.3270206 Z" id="Shape"></path>
                                <path d="M38.620625,67.6795638 L45.5171875,67.6795638 L62.0689062,67.6795638 L68.9654687,67.6795638 C69.793125,67.6795638 70.3448437,67.1273909 70.3448437,66.2990535 L70.3448437,35.9293909 C70.3448437,35.1010535 69.793125,34.5488807 68.9654687,34.5488807 L60.6895312,34.5488807 L46.8964062,34.5488807 L38.6204687,34.5488807 C37.7928125,34.5488807 37.2410937,35.1010535 37.2410937,35.9293909 L37.2410937,66.2992099 C37.2414062,67.1273909 37.793125,67.6795638 38.620625,67.6795638 L38.620625,67.6795638 Z M57.9310937,60.7773251 C58.75875,60.7773251 59.3104687,60.2251523 59.3104687,59.3968148 C59.3104687,58.5684774 58.75875,58.0163045 57.9310937,58.0163045 L49.6551562,58.0163045 C48.8275,58.0163045 48.2757812,58.5684774 48.2757812,59.3968148 C48.2757812,60.2251523 48.8275,60.7773251 49.6551562,60.7773251 L52.41375,60.7773251 L52.41375,64.9186996 L46.8575,64.9186996 C46.5854687,60.0024691 44.8703125,55.8972181 42.3446875,53.8750864 C45.5992187,51.1390864 47.9925,44.9590041 48.2514062,37.3097449 L59.3332812,37.3097449 C59.5785937,44.9590041 61.8565625,51.1390864 65.24125,53.8750864 C62.7157812,55.8972181 61.0004687,60.0024691 60.7284375,64.9186996 L55.1721875,64.9186996 L55.1721875,60.7773251 L57.9310937,60.7773251 L57.9310937,60.7773251 Z M67.58625,64.9186996 L63.4482813,64.9186996 C63.8620313,60.2251523 65.6551563,56.7740329 67.58625,55.6696872 L67.58625,64.9186996 L67.58625,64.9186996 Z M67.58625,37.3097449 L67.58625,52.0804856 C64.8276562,50.5620494 62.3448437,45.0401646 62.0690625,37.3097449 L67.58625,37.3097449 L67.58625,37.3097449 Z M40,37.3097449 L45.5171875,37.3097449 C45.24125,45.040321 42.620625,50.5620494 40,52.0804856 L40,37.3097449 L40,37.3097449 Z M40,55.6696872 C42.0689062,56.7740329 43.8620313,60.2251523 44.1379687,64.9186996 L40,64.9186996 L40,55.6696872 L40,55.6696872 Z" id="Shape"></path>
                                <path d="M27.58625,49.7337119 L27.58625,41.450963 C27.58625,40.6226255 27.0345312,40.0704527 26.206875,40.0704527 L17.9309375,40.0704527 C17.1032812,40.0704527 16.5515625,40.6226255 16.5515625,41.450963 L16.5515625,49.7337119 C16.5515625,50.5620494 17.1032812,51.1142222 17.9309375,51.1142222 L26.206875,51.1142222 C27.0345312,51.1142222 27.58625,50.5620494 27.58625,49.7337119 L27.58625,49.7337119 Z M24.8276562,48.353358 L19.3104687,48.353358 L19.3104687,42.8316296 L24.8276562,42.8316296 L24.8276562,48.353358 L24.8276562,48.353358 Z" id="Shape"></path>
                            </g>
                        </g>
                    </g>
                </g>
            </g>
        </g>
    </g>
</svg>