<?xml version="1.0" encoding="UTF-8"?>
<svg width="94px" height="80px" viewBox="0 0 94 80" version="1.1" xmlns="http://www.w3.org/2000/svg" xmlns:xlink="http://www.w3.org/1999/xlink">
    <!-- Generator: Sketch 51.2 (57519) - http://www.bohemiancoding.com/sketch -->
    <title>reviews</title>
    <desc>Created with Sketch.</desc>
    <defs></defs>
    <g id="Page-1" stroke="none" stroke-width="1" fill="none" fill-rule="evenodd">
        <g id="1-Landing-Page-Cuba" transform="translate(-1036.000000, -1073.000000)" fill="#ECB84C">
            <g id="Content" transform="translate(135.000000, 847.000000)">
                <g id="Section-1-Summary">
                    <g id="Icons+Stats" transform="translate(182.000000, 226.000000)">
                        <g id="Reviews" transform="translate(719.000000, 0.000000)">
                            <g id="reviews">
                                <path d="M86.7624132,26.3904416 C82.2392571,21.8755325 75.9119209,18.6603636 68.9457978,17.3369351 C68.1051692,17.1777662 67.2944967,17.7334026 67.1356264,18.5791169 C66.976756,19.4248312 67.5296,20.24 68.3706418,20.3997922 C81.636211,22.9198961 90.9010989,32.1928312 90.9010989,42.9498182 C90.9010989,51.8092468 84.6305758,59.7718442 74.5368352,63.7302857 C74.0215912,63.9324675 73.6524088,64.3954286 73.5683253,64.9452468 C72.9559824,68.9452468 73.7918593,73.0161039 75.8344484,76.4072727 C71.3745099,75.2091429 67.7620176,71.7666494 66.3569758,67.1019221 C66.1445978,66.3966753 65.468211,65.9362078 64.7399692,66.0012468 C63.645644,66.0968312 62.5426418,66.1454545 61.4615385,66.1454545 C51.8220967,66.1454545 42.7739253,62.4051948 37.2576747,56.1400519 C36.6905758,55.4956883 35.7113231,55.4358442 35.0704703,56.0064416 C34.4298242,56.577039 34.3703253,57.561974 34.9376308,58.2063377 C41.0329626,65.1291429 50.9486198,69.2623377 61.4615385,69.2623377 C62.2337846,69.2623377 63.0159473,69.2394805 63.7987297,69.1941818 C64.921978,72.1080519 66.8542462,74.7023377 69.3296484,76.5924156 C72.2374505,78.8126753 75.7032615,79.9860779 79.3519077,79.9860779 C79.9772659,79.9860779 80.5412659,79.6078961 80.7819473,79.0273247 C81.0226286,78.4467532 80.8926813,77.7776623 80.4526374,77.3307013 C77.5954505,74.4297143 76.1606593,70.3540779 76.5263297,66.2825974 C81.530022,64.1697662 85.7726242,61.0393766 88.8380571,57.1896104 C92.215033,52.9487792 94,48.0249351 94,42.9498182 C94,36.9302857 91.4297714,31.0493506 86.7624132,26.3904416 L86.7624132,26.3904416 Z" id="Shape"></path>
                                <path d="M65.0769231,26.3264416 C65.0769231,19.2292987 61.6454066,12.5797403 55.4143429,7.60249351 C49.2882286,2.70898701 41.1639429,0.0141298701 32.5384615,0.0141298701 C23.9123604,0.0141298701 15.7878681,2.70898701 9.66216703,7.60249351 C3.43130989,12.5797403 0,19.2292987 0,26.3264416 C0,31.4015584 1.78496703,36.3256104 5.16173626,40.5662338 C8.22716923,44.4157922 12.469978,47.5463896 17.4734637,49.6592208 C17.8391341,53.7307013 16.4043429,57.8063377 13.547156,60.7073247 C13.1071121,61.1540779 12.9771648,61.8233766 13.2178462,62.4039481 C13.4585275,62.9845195 14.0227341,63.3627013 14.6478857,63.3627013 C18.2967385,63.3627013 21.7623429,62.1892987 24.6701451,59.969039 C27.1455473,58.0791688 29.0778154,55.4846753 30.2010637,52.5708052 C30.9838462,52.6161039 31.7660088,52.638961 32.5382549,52.638961 C41.1639429,52.638961 49.2882286,49.9441039 55.4141363,45.0505974 C61.6454066,40.0731429 65.0769231,33.4235844 65.0769231,26.3264416 L65.0769231,26.3264416 Z M29.2600308,49.3776623 C28.5295165,49.3134545 27.8554022,49.7728831 27.6430242,50.4783377 C26.2379824,55.1428571 22.6256967,58.5853506 18.1655516,59.7834805 C20.2081407,56.3925195 21.0440176,52.3214545 20.4316747,48.3214545 C20.3475912,47.7716364 19.9784088,47.3086753 19.4631648,47.1064935 C9.36942418,43.1484675 3.0989011,35.1858701 3.0989011,26.3264416 C3.0989011,13.5364156 16.3053846,3.13101299 32.5384615,3.13101299 C48.7715385,3.13101299 61.978022,13.5364156 61.978022,26.3264416 C61.978022,39.1164675 48.7715385,49.5218701 32.5384615,49.5218701 C31.4573582,49.5218701 30.354356,49.4734545 29.2600308,49.3776623 L29.2600308,49.3776623 Z" id="Shape"></path>
                            </g>
                        </g>
                    </g>
                </g>
            </g>
        </g>
    </g>
</svg>