<?xml version="1.0" encoding="UTF-8"?>
<svg width="94px" height="72px" viewBox="0 0 94 72" version="1.1" xmlns="http://www.w3.org/2000/svg" xmlns:xlink="http://www.w3.org/1999/xlink">
    <!-- Generator: Sketch 51.2 (57519) - http://www.bohemiancoding.com/sketch -->
    <title>transport</title>
    <desc>Created with Sketch.</desc>
    <defs></defs>
    <g id="Page-1" stroke="none" stroke-width="1" fill="none" fill-rule="evenodd">
        <g id="1-Landing-Page-Cuba" transform="translate(-793.000000, -1077.000000)">
            <g id="Content" transform="translate(135.000000, 847.000000)">
                <g id="Section-1-Summary">
                    <g id="Icons+Stats" transform="translate(182.000000, 226.000000)">
                        <g id="Bookings" transform="translate(476.000000, 4.000000)">
                            <g id="transport">
                                <path d="M93.5270412,25.1101714 C93.0499855,24.2278857 92.259293,23.5844571 91.3006295,23.2992 L13.632276,0.177142857 C13.2856368,0.0740571429 12.9273898,0.0214857143 12.5680048,0.0214857143 C10.922891,0.0214857143 9.44756901,1.12845714 8.97984504,2.71314286 L0.154542373,32.6098286 C-0.403539952,34.5005714 0.59609201,36.4868571 2.39893462,37.1835429 L2.39893462,68.2013714 C2.39893462,70.2740571 4.07818886,71.9606857 6.14231961,71.9606857 L87.1516562,71.9606857 C89.2157869,71.9606857 90.8950412,70.2740571 90.8950412,68.2013714 L90.8950412,37.9014857 L93.8258838,27.9723429 C94.110615,27.0091429 94.0043245,25.9926857 93.5270412,25.1101714 L93.5270412,25.1101714 Z M88.1640339,68.2013714 C88.1640339,68.7618286 87.7099661,69.2178286 87.1518838,69.2178286 L66.3025472,69.2178286 L66.3025472,67.5817143 C66.3025472,66.8244571 65.6912058,66.2102857 64.9369298,66.2102857 C64.1826538,66.2102857 63.5713123,66.8244571 63.5713123,67.5817143 L63.5713123,69.2178286 L6.14231961,69.2178286 C5.58423729,69.2178286 5.13016949,68.7618286 5.13016949,68.2013714 L5.13016949,38.0123429 L17.7566683,41.7712 L16.8728862,42.6587429 L10.698247,41.9794286 L9.41957385,43.0192 L14.3330654,45.2091429 L12.6164843,46.9332571 L10.7856465,46.7533714 C10.7544649,46.7504 10.7241937,46.7622857 10.7023438,46.7851429 L10.061414,47.4288 C10.0199903,47.4674286 10.0168039,47.5328 10.0552688,47.5753143 C10.0648281,47.5858286 10.0764358,47.5940571 10.0891816,47.5995429 L11.6824019,48.3277714 C11.6876368,48.5894857 11.7891477,48.8493714 11.9876174,49.0489143 C12.1865424,49.2482286 12.4453269,49.3504 12.7057046,49.3556571 L13.4326683,50.9536 C13.4561114,51.0059429 13.517109,51.0290286 13.5687748,51.0059429 C13.5799274,51.0006857 13.5903971,50.9940571 13.599046,50.9853714 L14.2399758,50.3376 C14.2625085,50.3158857 14.2738886,50.2854857 14.2716126,50.2541714 L14.0922615,48.4194286 L15.8104358,46.6937143 L17.9913269,51.6283429 L19.0266925,50.344 L18.3504843,44.1430857 L20.0358838,42.4502857 L22.8731816,43.2948571 L22.8731816,44.0445714 C22.8731816,44.2971429 23.0771138,44.5017143 23.3283874,44.5017143 L26.9270169,44.5017143 L37.2772591,47.5828571 L23.3283874,47.5828571 C23.0771138,47.5828571 22.8731816,47.7876571 22.8731816,48.04 L22.8731816,50.9508571 C22.8731816,51.2034286 23.0771138,51.408 23.3283874,51.408 L50.1265811,51.408 L63.6138741,55.4230857 C63.5870169,55.5302857 63.5710847,55.6420571 63.5710847,55.7577143 L63.5710847,61.6697143 C63.5710847,62.4269714 64.1824262,63.0411429 64.9367022,63.0411429 C65.6909782,63.0411429 66.3023196,62.4269714 66.3023196,61.6697143 L66.3023196,56.2233143 L80.3483777,60.4048 C80.6950169,60.5081143 81.0534915,60.5604571 81.4128765,60.5604571 C83.0577627,60.5604571 84.5330847,59.4537143 85.0012639,57.8692571 L88.1640339,47.1545143 L88.1640339,68.2013714 L88.1640339,68.2013714 Z M91.20754,27.1924571 L82.3829201,57.0893714 C82.2561453,57.5181714 81.857385,57.8176 81.4131041,57.8176 C81.3163729,57.8176 81.219414,57.8032 81.1247312,57.7750857 L61.1352785,51.8242286 L61.5982228,50.2557714 C61.8123971,49.5296 61.4002082,48.7664 60.6768862,48.5510857 C59.954247,48.3362286 59.1938257,48.7497143 58.9794237,49.4761143 L58.5164794,51.0448 L3.45615012,34.6532571 C2.92105569,34.4939429 2.61447458,33.9270857 2.7733414,33.3897143 L11.5981889,3.4928 C11.7247361,3.064 12.1234964,2.76434286 12.5677772,2.76434286 C12.6645085,2.76434286 12.7616949,2.77874286 12.8561501,2.80685714 L67.9164794,19.1986286 L67.3447409,21.1353143 C67.1305666,21.8617143 67.5427554,22.6249143 68.2660775,22.84 C68.3955835,22.8786286 68.5262276,22.8969143 68.6548232,22.8969143 C69.2438596,22.8969143 69.7876029,22.5110857 69.96354,21.9149714 L70.5352785,19.9782857 L90.5245036,25.9291429 C90.7839709,26.0061714 90.9979177,26.1803429 91.1267409,26.4189714 C91.2557918,26.6571429 91.2844697,26.9321143 91.20754,27.1924571 L91.20754,27.1924571 Z" id="Shape" fill="#ECB84C"></path>
                                <path d="M64.0231041,37.2148571 C63.3020581,36.9993143 62.5400436,37.4132571 62.3256416,38.1398857 L60.6527603,43.808 C60.438586,44.5341714 60.8510024,45.2976 61.5740969,45.5126857 C61.7033753,45.5513143 61.834247,45.5696 61.9628426,45.5696 C62.5518789,45.5696 63.0956223,45.1837714 63.2715593,44.5874286 L64.9446683,38.9193143 C65.158615,38.1931429 64.7459709,37.4299429 64.0231041,37.2148571 L64.0231041,37.2148571 Z" id="Shape" fill="#ECB84C"></path>
                                <path d="M67.369322,25.8784 C66.6480484,25.6633143 65.8862615,26.0770286 65.6718596,26.8036571 L63.9987506,32.4717714 C63.7845763,33.1979429 64.1969927,33.9611429 64.9200872,34.1762286 C65.0493656,34.2148571 65.1800097,34.2331429 65.3088329,34.2331429 C65.8978692,34.2331429 66.4416126,33.8473143 66.6175496,33.2512 L68.2906586,27.5830857 C68.5048329,26.8569143 68.0924165,26.0937143 67.369322,25.8784 L67.369322,25.8784 Z" id="Shape" fill="#ECB84C"></path>
                                <path d="M13.3580145,15.0530286 L14.679477,16.2057143 C14.6102857,16.4580571 14.634184,16.736 14.7682421,16.984 C14.9023002,17.232 15.1214818,17.4041143 15.3697966,17.4832 L15.6146973,19.2224 C15.6224358,19.2793143 15.6741017,19.3193143 15.7303196,19.3115429 C15.7423826,19.3097143 15.7542179,19.3062857 15.7651429,19.3005714 L16.562891,18.8624 C16.5906586,18.848 16.6102324,18.8221714 16.6168329,18.7913143 L16.964155,16.9808 L19.0999806,15.8171429 L19.7943971,21.1705143 L21.1504552,20.2345143 L22.2570605,14.0962286 L24.6027361,12.8178286 C25.1098354,12.5417143 25.2978354,11.9044571 25.0226634,11.3952 C24.7474915,10.8859429 24.1129346,10.6969143 23.6058354,10.9732571 L21.2601598,12.2518857 L15.5323051,9.83817143 L14.0121453,10.4701714 L18.1033075,13.9723429 L15.9697579,15.1355429 L14.2652397,14.4402286 C14.2361065,14.4285714 14.2037869,14.4313143 14.1764746,14.4468571 L13.3798644,14.8806857 C13.329109,14.9060571 13.3077143,14.9677714 13.332523,15.0194286 C13.3384407,15.0324571 13.3473172,15.0438857 13.3580145,15.0530286 L13.3580145,15.0530286 Z" id="Shape" fill="#ECB84C"></path>
                                <path d="M55.8230266,42.0841143 L8.7422276,28.0678857 C8.50210654,27.9968 8.24787409,28.1341714 8.17640678,28.3764571 L7.35248426,31.1673143 C7.31811622,31.2834286 7.33131719,31.4086857 7.38890073,31.5154286 C7.44648426,31.6219429 7.54389831,31.7012571 7.65974818,31.7355429 L54.7407748,45.7515429 C54.783109,45.7643429 54.8268087,45.7705143 54.8700533,45.7705143 C54.9451622,45.7705143 55.019816,45.7517714 55.0871864,45.7152 C55.1932494,45.6573714 55.2722276,45.5595429 55.3065956,45.4434286 L56.1302906,42.6525714 C56.2015303,42.4100571 56.0640581,42.1558857 55.8230266,42.0841143 L55.8230266,42.0841143 Z" id="Shape" fill="#ECB84C"></path>
                                <path d="M57.7776804,35.4624 L10.6966538,21.4461714 C10.5810315,21.4118857 10.4563051,21.4249143 10.3502421,21.4827429 C10.2441792,21.5405714 10.165201,21.6384 10.1310605,21.7545143 L9.30713801,24.5458286 C9.2356707,24.7878857 9.37314286,25.0422857 9.61417433,25.1138286 L56.695201,39.1296 C56.7377627,39.1424 56.7812349,39.1485714 56.8244794,39.1485714 C56.8995884,39.1485714 56.9742421,39.1298286 57.0416126,39.0932571 C57.1476755,39.0354286 57.2266538,38.9376 57.2610218,38.8214857 L58.0847167,36.0306286 C58.156184,35.7885714 58.0187119,35.5341714 57.7776804,35.4624 L57.7776804,35.4624 Z" id="Shape" fill="#ECB84C"></path>
                                <path d="M59.7318789,28.8406857 L26.0564358,18.8155429 C25.815632,18.744 25.5620823,18.8816 25.490615,19.1241143 L24.6666925,21.9149714 C24.6323245,22.0310857 24.6455254,22.1563429 24.703109,22.2628571 C24.7606925,22.3693714 24.8581065,22.4486857 24.9739564,22.4829714 L58.6500823,32.5083429 C58.6926441,32.5211429 58.7361162,32.5273143 58.7793608,32.5273143 C58.8544697,32.5273143 58.9291235,32.5085714 58.9964939,32.472 C59.1025569,32.4141714 59.1815351,32.3161143 59.2159031,32.2 L60.0391429,29.4089143 C60.1103826,29.1668571 59.9729104,28.9126857 59.7318789,28.8406857 L59.7318789,28.8406857 Z" id="Shape" fill="#ECB84C"></path>
                                <path d="M60.7335593,25.9053714 C60.929753,25.9053714 61.1111525,25.7766857 61.1696465,25.5780571 L61.9937966,22.7872 C62.0281646,22.6708571 62.0151913,22.5456 61.9576077,22.4390857 C61.9000242,22.3325714 61.8026102,22.2532571 61.6869879,22.2187429 L28.010862,12.1936 C27.7702857,12.1220571 27.5167361,12.2598857 27.4450412,12.5021714 L26.6211186,15.2930286 C26.5867506,15.4091429 26.5999516,15.5344 26.6575351,15.6409143 C26.7151186,15.7474286 26.8125327,15.8267429 26.928155,15.8610286 L60.6040533,25.8861714 C60.6472978,25.8994286 60.69077,25.9053714 60.7335593,25.9053714 L60.7335593,25.9053714 Z" id="Shape" fill="#ECB84C"></path>
                                <path d="M58.4529782,61.3956571 L9.34719613,61.3956571 C9.09569492,61.3956571 8.89199031,61.6004571 8.89199031,61.8528 L8.89199031,64.7636571 C8.89199031,65.0162286 9.09569492,65.2208 9.34719613,65.2208 L58.4529782,65.2208 C58.7042518,65.2208 58.908184,65.0162286 58.908184,64.7636571 L58.908184,61.8528 C58.908184,61.6002286 58.7042518,61.3956571 58.4529782,61.3956571 L58.4529782,61.3956571 Z" id="Shape" fill="#ECB84C"></path>
                                <path d="M58.4529782,54.4891429 L9.34719613,54.4889143 C9.22656659,54.4889143 9.11071671,54.5371429 9.02536562,54.6228571 C8.94001453,54.7085714 8.89199031,54.8249143 8.89199031,54.9460571 L8.89199031,57.8571429 C8.89199031,58.1094857 9.09569492,58.3142857 9.34719613,58.3142857 L58.4529782,58.3142857 C58.7042518,58.3142857 58.908184,58.1094857 58.908184,57.8571429 L58.908184,54.9462857 C58.908184,54.6939429 58.7042518,54.4891429 58.4529782,54.4891429 L58.4529782,54.4891429 Z" id="Shape" fill="#ECB04C"></path>
                            </g>
                        </g>
                    </g>
                </g>
            </g>
        </g>
    </g>
</svg>